Coordinates
version=1
nRows=22
nColumns=24
inDegrees=yes

Units are S.I. units (second, meters, Newtons, ...)
Angles are in degrees.

endheader
time	pelvis_tilt	pelvis_list	pelvis_rotation	pelvis_tx	pelvis_ty	pelvis_tz	hip_flexion_r	hip_adduction_r	hip_rotation_r	knee_angle_r	ankle_angle_r	subtalar_angle_r	mtp_angle_r	hip_flexion_l	hip_adduction_l	hip_rotation_l	knee_angle_l	ankle_angle_l	subtalar_angle_l	mtp_angle_l	lumbar_extension	lumbar_bending	lumbar_rotation
      2.48000000	      6.84878218	      8.23212435	     -0.78867780	      0.08261975	      0.99667084	      0.01662348	      6.18544081	     -6.87622024	    -12.81320508	    -18.90145114	      6.00166403	      0.81318399	     -7.22483166	     11.84057789	      6.01871545	     -5.14093198	    -59.67065042	      5.23312382	      5.22261941	     53.13656403	    -20.53201482	     -6.93348491	      7.29025208
      2.48500000	      6.78420025	      8.29552669	     -0.86316231	      0.08716082	      0.99715898	      0.01709734	      5.89644246	     -6.90829512	    -12.82577700	    -18.76621900	      6.15368808	      0.86998439	     -7.01609635	     12.37680610	      6.01630837	     -5.39149673	    -59.25421967	      5.60512223	      5.23228209	     51.81197297	    -20.48992544	     -7.04889041	      7.36292289
      2.49000000	      6.77115053	      8.37049340	     -0.96319784	      0.09172629	      0.99771881	      0.01757587	      5.55022037	     -6.95900077	    -12.84429822	    -18.62721753	      6.34955980	      1.02290774	     -6.96001635	     12.82293247	      6.02461966	     -5.66618835	    -58.73007705	      5.84177144	      5.11987281	     51.71796679	    -20.49831551	     -7.18214422	      7.49027195
      2.49500000	      6.75005005	      8.44978097	     -1.05169215	      0.09627133	      0.99823203	      0.01801268	      5.21848356	     -7.01940476	    -12.88055775	    -18.50064795	      6.54661902	      1.15458775	     -6.90007800	     13.26598405	      6.03959299	     -5.94400344	    -58.15967525	      6.06104617	      4.96908201	     51.55685645	    -20.50280507	     -7.31311390	      7.58912580
      2.50000000	      6.72404707	      8.53001183	     -1.13405932	      0.10081373	      0.99871482	      0.01844067	      4.88853632	     -7.08050373	    -12.91113552	    -18.36805384	      6.74634401	      1.29776370	     -6.83254368	     13.69610950	      6.06052365	     -6.21119928	    -57.53208382	      6.25554843	      4.81887099	     51.32278813	    -20.50175220	     -7.44615498	      7.68847549
      2.50500000	      6.71577883	      8.62228531	     -1.21381736	      0.10537414	      0.99921840	      0.01883475	      4.53326361	     -7.15863136	    -12.94933385	    -18.22646700	      6.95035532	      1.46090279	     -6.75533056	     14.08117117	      6.10159154	     -6.47382197	    -56.83574334	      6.41441366	      4.67038218	     50.99465451	    -20.51840548	     -7.58752446	      7.77934336
      2.51000000	      6.70949983	      8.70241961	     -1.27605151	      0.10992990	      0.99968909	      0.01920759	      4.17211455	     -7.22513336	    -13.01165927	    -18.08536319	      7.14680347	      1.61055840	     -6.67931063	     14.44763479	      6.13190524	     -6.72499835	    -56.09400604	      6.57360427	      4.53695329	     50.62725771	    -20.53973080	     -7.71150033	      7.85305960
      2.51500000	      6.74685130	      8.74277522	     -1.28040952	      0.11451548	      1.00020532	      0.01950710	      3.72010124	     -7.24666436	    -13.13798079	    -17.88635155	      7.29732967	      1.73928921	     -6.53778204	     14.74676706	      6.14141428	     -6.89606299	    -55.32356442	      6.81650357	      4.53115875	     49.53057156	    -20.61456248	     -7.77285633	      7.87829170
      2.52000000	      6.67963869	      8.82324905	     -1.34691599	      0.11902300	      1.00051886	      0.01988923	      3.44888549	     -7.30972270	    -13.16119119	    -17.77576309	      7.48086374	      1.83426793	     -6.49698958	     15.14677910	      6.16676658	     -7.16905197	    -54.48185886	      6.89652636	      4.40657746	     49.42012141	    -20.57188982	     -7.90222942	      7.94082959
      2.52500000	      6.66706812	      8.90016305	     -1.40605153	      0.12356250	      1.00088932	      0.02021600	      3.10192626	     -7.37583533	    -13.21815509	    -17.64439924	      7.68361348	      1.98580238	     -6.45110343	     15.45686618	      6.20511436	     -7.42057106	    -53.57389829	      6.95109503	      4.26066245	     49.24055121	    -20.58690879	     -8.01882323	      8.01469111
      2.53000000	      6.68146893	      8.96906877	     -1.45424857	      0.12811105	      1.00127181	      0.02051423	      2.71466864	     -7.43542019	    -13.29677332	    -17.49782779	      7.87962580	      2.13783427	     -6.40969369	     15.71280103	      6.24321056	     -7.65649509	    -52.61033090	      6.99325359	      4.14639121	     49.00175700	    -20.63395501	     -8.12134132	      8.07075099
      2.53500000	      6.70769401	      9.03309085	     -1.49941170	      0.13266590	      1.00164409	      0.02079728	      2.30987323	     -7.48918401	    -13.36868914	    -17.34285083	      8.07413380	      2.29298846	     -6.37435306	     15.93052646	      6.28611706	     -7.87356883	    -51.59123297	      7.01216423	      4.05464530	     48.71346951	    -20.69456619	     -8.21540614	      8.12618607
      2.54000000	      6.71572092	      9.09073360	     -1.54390436	      0.13721797	      1.00195869	      0.02108784	      1.93361418	     -7.53525081	    -13.45190199	    -17.20257374	      8.25124173	      2.41811034	     -6.34958363	     16.14370497	      6.32023806	     -8.10311292	    -50.51885718	      7.01813010	      3.99308191	     48.43958434	    -20.73281156	     -8.30633208	      8.16961343
      2.54500000	      6.80613406	      9.11486236	     -1.57347143	      0.14181279	      1.00236200	      0.02131779	      1.43507867	     -7.54996480	    -13.58516462	    -17.01409033	      8.40214471	      2.59902199	     -6.34727199	     16.23555252	      6.34165921	     -8.28594064	    -49.39368150	      7.04894912	      3.95150173	     47.96641427	    -20.86161819	     -8.34826842	      8.23777418
      2.55000000	      6.73298997	      9.16777964	     -1.60410105	      0.14631234	      1.00248246	      0.02158746	      1.16635739	     -7.58402439	    -13.61911639	    -16.89842042	      8.54201156	      2.62144014	     -6.33458665	     16.50156928	      6.37742780	     -8.49993958	    -48.23283129	      6.97003689	      3.96933344	     47.85221942	    -20.81625907	     -8.43074674	      8.25749629
      2.55500000	      6.85972449	      9.20912643	     -1.69279464	      0.15090465	      1.00286159	      0.02187107	      0.65647435	     -7.62338374	    -13.71418172	    -16.74177551	      8.75038367	      2.83593074	     -6.34143266	     16.49222386	      6.41363664	     -8.74697450	    -46.97117083	      6.90572451	      3.92105438	     47.48138327	    -20.97829835	     -8.50873909	      8.37382841
      2.56000000	      6.82759508	      9.25668606	     -1.76666875	      0.15540287	      1.00295196	      0.02217538	      0.36063093	     -7.65688996	    -13.70819270	    -16.64799491	      8.96238289	      2.90197456	     -6.33030188	     16.65465320	      6.44757874	     -8.99421646	    -45.68801037	      6.78194156	      3.95313763	     47.33424081	    -20.97578035	     -8.59648254	      8.42002279
      2.56500000	      6.86661968	      9.29277414	     -1.86565809	      0.15993159	      1.00311373	      0.02247328	     -0.02059426	     -7.68609125	    -13.72330569	    -16.53299092	      9.14786016	      3.02738652	     -6.32935925	     16.70110420	      6.47884762	     -9.24866219	    -44.33306927	      6.63727446	      3.98452895	     47.17111598	    -21.04337995	     -8.67526161	      8.53995883
      2.57000000	      6.96692228	      9.30464163	     -1.93931185	      0.16451092	      1.00335517	      0.02271182	     -0.49896752	     -7.69317769	    -13.81692140	    -16.37778103	      9.29719595	      3.18346327	     -6.37529218	     16.64376834	      6.50722047	     -9.45920677	    -42.91502456	      6.47517702	      4.04445168	     46.93100865	    -21.17794451	     -8.71575613	      8.65401273
      2.57500000	      6.92529970	      9.33178754	     -2.04308699	      0.16900394	      1.00331297	      0.02300546	     -0.76452442	     -7.71193198	    -13.77594775	    -16.30673850	      9.50431494	      3.26167983	     -6.37507837	     16.73343793	      6.53304814	     -9.72079204	    -41.46749720	      6.27549114	      4.14735637	     46.82844445	    -21.15916581	     -8.78679204	      8.75026740
      2.58000000	      6.94896951	      9.34886523	     -2.17521144	      0.17352452	      1.00334123	      0.02331050	     -1.10603145	     -7.72632868	    -13.74639731	    -16.21960803	      9.69239540	      3.37385232	     -6.38415978	     16.71116792	      6.55516129	    -10.00055904	    -39.94409976	      6.04010182	      4.25873683	     46.72393953	    -21.20605326	     -8.85442794	      8.90820007
      2.58500000	      7.00548401	      9.36099963	     -2.31320684	      0.17805319	      1.00337766	      0.02359330	     -1.48406737	     -7.74157446	    -13.73044303	    -16.13138236	      9.87948299	      3.50767190	     -6.40587325	     16.62130607	      6.58304965	    -10.27797462	    -38.36058394	      5.77483626	      4.40121664	     46.61931792	    -21.28880131	     -8.91386900	      9.07684834
